<?xml version="1.0" encoding="UTF-8"?>
<svg id="Layer_2" data-name="Layer 2" xmlns="http://www.w3.org/2000/svg" viewBox="0 0 550.37 544.59">
  <defs>
    <style>
      .cls-1 {
        letter-spacing: .06em;
      }

      .cls-2 {
        letter-spacing: .04em;
      }

      .cls-3 {
        font-family: SegoeUI-Bold, 'Segoe UI';
        font-size: 110px;
        font-weight: 700;
      }

      .cls-3, .cls-4 {
        fill: #fff;
      }

      .cls-5 {
        letter-spacing: .07em;
      }
    </style>
  </defs>
  <g id="Lag_2" data-name="Lag 2">
    <g>
      <path class="cls-4" d="M258.68,51.02C108.68,61.54,61.37,200.5,61.37,200.5H7.68C69.68,5.5,258.68.5,258.68.5v50.52Z"/>
      <path class="cls-4" d="M294.18,50.52c150,10.52,197.31,149.48,197.31,149.48h53.69C483.18,5,294.18,0,294.18,0v50.52Z"/>
      <path class="cls-4" d="M294.18,92.38v51.06s55.39,1.05,91.45,56.55h60.26s-41.2-96.73-151.7-107.62Z"/>
      <path class="cls-4" d="M258.68,92.88v51.06s-55.39,1.05-91.45,56.55h-60.26s41.2-96.73,151.7-107.62Z"/>
      <path class="cls-4" d="M294.18,445.81l-.15-51.72c53.65-2.86,83.77-46.5,83.77-46.5h62.73s-39.7,87.45-146.35,98.22Z"/>
      <path class="cls-4" d="M488.03,348.09l54.19-.5c-.95,2.35-54.82,168.25-247.69,185v12l-62.2-35.66,62.2-35.34v13s130.96-.5,193.5-138.5Z"/>
      <text class="cls-3" transform="translate(0 313.91)"><tspan class="cls-2" x="0" y="0">K</tspan><tspan class="cls-1" x="75.25" y="0">ONKR</tspan><tspan class="cls-5" x="416.92" y="0">E</tspan><tspan class="cls-1" x="483.48" y="0">T</tspan></text>
    </g>
  </g>
</svg>